first trial
nRows=4
nColumns=165

# SIMM Motion File Header:
name first trial
datacolumns 165
datarows 4
otherdata 1
range 1.36700000 1.41700000
endheader
time	pelvis_tx	pelvis_ty	pelvis_tz	pelvis_tilt	pelvis_list	pelvis_rotation	hip_flexion_r	hip_adduction_r	hip_rotation_r	knee_angle_r	ankle_angle_r	subtalar_angle_r	mtp_angle_r	hip_flexion_l	hip_adduction_l	hip_rotation_l	knee_angle_l	ankle_angle_l	subtalar_angle_l	mtp_angle_l	lumbar_extension	lumbar_bending	lumbar_rotation	R.ASIS_tx	R.ASIS_ty	R.ASIS_tz	L.ASIS_tx	L.ASIS_ty	L.ASIS_tz	V.Sacral_tx	V.Sacral_ty	V.Sacral_tz	R.Thigh.Upper_tx	R.Thigh.Upper_ty	R.Thigh.Upper_tz	R.Thigh.Front_tx	R.Thigh.Front_ty	R.Thigh.Front_tz	R.Thigh.Rear_tx	R.Thigh.Rear_ty	R.Thigh.Rear_tz	L.Thigh.Upper_tx	L.Thigh.Upper_ty	L.Thigh.Upper_tz	L.Thigh.Front_tx	L.Thigh.Front_ty	L.Thigh.Front_tz	L.Thigh.Rear_tx	L.Thigh.Rear_ty	L.Thigh.Rear_tz	R.Shank.Upper_tx	R.Shank.Upper_ty	R.Shank.Upper_tz	R.Shank.Front_tx	R.Shank.Front_ty	R.Shank.Front_tz	R.Shank.Rear_tx	R.Shank.Rear_ty	R.Shank.Rear_tz	L.Shank.Upper_tx	L.Shank.Upper_ty	L.Shank.Upper_tz	L.Shank.Front_tx	L.Shank.Front_ty	L.Shank.Front_tz	L.Shank.Rear_tx	L.Shank.Rear_ty	L.Shank.Rear_tz	R.Heel_tx	R.Heel_ty	R.Heel_tz	R.Midfoot.Sup_tx	R.Midfoot.Sup_ty	R.Midfoot.Sup_tz	R.Midfoot.Lat_tx	R.Midfoot.Lat_ty	R.Midfoot.Lat_tz	R.Toe.Tip_tx	R.Toe.Tip_ty	R.Toe.Tip_tz	L.Heel_tx	L.Heel_ty	L.Heel_tz	L.Midfoot.Sup_tx	L.Midfoot.Sup_ty	L.Midfoot.Sup_tz	L.Midfoot.Lat_tx	L.Midfoot.Lat_ty	L.Midfoot.Lat_tz	L.Toe.Tip_tx	L.Toe.Tip_ty	L.Toe.Tip_tz	Sternum_tx	Sternum_ty	Sternum_tz	R.Acromium_tx	R.Acromium_ty	R.Acromium_tz	L.Acromium_tx	L.Acromium_ty	L.Acromium_tz	R.Bicep_tx	R.Bicep_ty	R.Bicep_tz	L.Bicep_tx	L.Bicep_ty	L.Bicep_tz	R.Elbow_tx	R.Elbow_ty	R.Elbow_tz	L.Elbow_tx	L.Elbow_ty	L.Elbow_tz	R.Wrist.Med_tx	R.Wrist.Med_ty	R.Wrist.Med_tz	R.Wrist.Lat_tx	R.Wrist.Lat_ty	R.Wrist.Lat_tz	L.Wrist.Med_tx	L.Wrist.Med_ty	L.Wrist.Med_tz	L.Wrist.Lat_tx	L.Wrist.Lat_ty	L.Wrist.Lat_tz	R.Toe.Lat_tx	R.Toe.Lat_ty	R.Toe.Lat_tz	R.Toe.Med_tx	R.Toe.Med_ty	R.Toe.Med_tz	L.Toe.Lat_tx	L.Toe.Lat_ty	L.Toe.Lat_tz	L.Toe.Med_tx	L.Toe.Med_ty	L.Toe.Med_tz	R.Temple_tx	R.Temple_ty	R.Temple_tz	L.Temple_tx	L.Temple_ty	L.Temple_tz	Top.Head_tx	Top.Head_ty	Top.Head_tz	ground_force_vx	ground_force_vy	ground_force_vz	ground_force_px	ground_force_py	ground_force_pz	ground_force_vx	ground_force_vy	ground_force_vz	ground_force_px	ground_force_py	ground_force_pz	ground_torque_x	ground_torque_y	ground_torque_z	ground_torque_x	ground_torque_y	ground_torque_z
      1.36700000	      0.59734758	      1.01712320	      0.03017996	      5.40263972	     -2.39774212	     -4.62696079	    -16.31563267	      0.60950308	      0.83062708	    -34.32822752	      5.96105306	      0.00043126	      0.00000228	     17.95234271	     -2.19558309	     -2.75553534	    -18.49111234	     -3.07790302	     -0.00016109	     -0.00000036	    -15.40460010	     -1.63015882	      2.11926018	      0.60762128	      1.05307129	      0.16047549	      0.63164368	      1.04882068	     -0.09929385	      0.42040039	      1.04887561	      0.01908388	      0.51958405	      0.73632471	      0.21059683	      0.58230695	      0.65928973	      0.13406366	      0.49106671	      0.61723901	      0.20778979	      0.65036426	      0.74735303	     -0.14860374	      0.74782990	      0.74223260	     -0.08246134	      0.68762988	      0.64634369	     -0.13137752	      0.36458456	      0.48309753	      0.19450839	      0.40787473	      0.40463046	      0.14789534	      0.32046591	      0.40848044	      0.19784688	      0.73064532	      0.44195724	     -0.12397008	      0.78128015	      0.39875281	     -0.06687711	      0.71502679	      0.39657825	     -0.13252263	      0.07295761	      0.21337770	      0.09904820	      0.19098845	      0.12780871	      0.07458433	      0.16054248	      0.11368744	      0.17896239	      0.27033896	      0.03782413	      0.11814784	      0.68253839	      0.07387901	     -0.03971849	      0.84930475	      0.08117300	     -0.00829023	      0.83663995	      0.07345835	     -0.10616966	      0.96275879	      0.06639281	     -0.03475788	      0.64116040	      1.35634875	     -0.00120435	      0.54021545	      1.45275598	      0.20481560	      0.57238544	      1.45935791	     -0.21401601	      0.56166571	      1.25520972	      0.26015372	      0.57121777	      1.22021619	     -0.23882103	      0.52837317	      1.15146423	      0.29817459	      0.51355048	      1.12813672	     -0.27202557	      0.70418835	      0.94648560	      0.28455276	      0.67149274	      0.92856903	      0.33936826	      0.60854407	      0.89592426	     -0.22671663	      0.56017023	      0.88674835	     -0.28371539	      0.20700465	      0.03990817	      0.19788147	      0.23394183	      0.04388892	      0.08693961	      0.89822247	      0.05094680	     -0.11314130	      0.91251367	      0.06043309	     -0.01074661	      0.70496216	      1.58054553	      0.08149422	      0.72075391	      1.58292480	     -0.05706994	      0.71483459	      1.75682214	      0.01894653	     59.25272354	    178.87683908	     -0.59296409	      0.25604131	     -0.00750000	      0.13168155	    -89.42242330	    606.26352289	     18.38147539	      0.73577648	     -0.00750000	     -0.04724556	      0.02772711	      2.43838764	     -0.48464176	      0.00000000	      8.14548315	      0.00000000
      1.38300000	      0.59975576	      1.01886401	      0.02657038	      5.56877735	     -1.88181419	     -4.47688015	    -13.65861385	     -0.65633319	     -0.94213965	    -40.50926493	      1.76700611	      0.00043637	     -0.00000099	     16.98953456	     -1.44497773	     -3.09182221	    -19.45230805	     -2.27345086	     -0.00016019	     -0.00000016	    -15.33232674	     -2.29596518	      1.74866438	      0.61024341	      1.05451331	      0.15666705	      0.63404449	      1.05140991	     -0.10268336	      0.42276910	      1.05000464	      0.01689082	      0.53123059	      0.73579663	      0.21280659	      0.59970813	      0.66090063	      0.13483688	      0.50814279	      0.61553851	      0.20930283	      0.65002686	      0.74914569	     -0.15197476	      0.74954102	      0.74258783	     -0.08658808	      0.68486340	      0.64732788	     -0.13527303	      0.38481567	      0.48469516	      0.19661533	      0.42402484	      0.40365039	      0.15104338	      0.33688062	      0.41179132	      0.19919193	      0.72292230	      0.44098834	     -0.12796081	      0.77183124	      0.39673007	     -0.06892097	      0.70701605	      0.39646515	     -0.13544293	      0.08318510	      0.23649263	      0.09837334	      0.19141273	      0.13849393	      0.07599792	      0.15732503	      0.12734642	      0.17879979	      0.25641330	      0.03538400	      0.12023669	      0.66483014	      0.07418172	     -0.04088969	      0.83175708	      0.07895263	     -0.00945933	      0.81884424	      0.07153674	     -0.10733792	      0.94527679	      0.06138046	     -0.03619960	      0.64238898	      1.35875330	     -0.00466966	      0.54168488	      1.45603040	      0.20053560	      0.57388068	      1.46079578	     -0.21797020	      0.55877222	      1.25832800	      0.25636496	      0.57682043	      1.22118103	     -0.24176404	      0.52406732	      1.15488208	      0.29395428	      0.52058643	      1.12834521	     -0.27436282	      0.69437006	      0.94468988	      0.28686969	      0.65958893	      0.92764789	      0.33986905	      0.61690546	      0.89604047	     -0.22940862	      0.56847119	      0.88658942	     -0.28579205	      0.19400246	      0.04647063	      0.19816704	      0.22400105	      0.04996963	      0.08807691	      0.88102881	      0.04768734	     -0.11413638	      0.89487091	      0.05733222	     -0.01185986	      0.70532196	      1.58344885	      0.07793627	      0.72022107	      1.58590308	     -0.06043885	      0.71358612	      1.75958459	      0.01482569	     35.10499438	     97.94408737	      0.04177320	      0.25815381	     -0.00750000	      0.12991965	   -100.83855256	    685.33735821	     37.12496258	      0.72934919	     -0.00750000	     -0.05136835	      0.03880285	      0.24347165	     -0.02025439	      0.00000000	      8.46152704	      0.00000000
      1.40000000	      0.60142858	      1.02061003	      0.02307601	      5.68450185	     -1.33375467	     -4.32936116	    -10.72187734	     -2.16085353	     -2.71349900	    -46.45324622	     -2.77535498	      0.00033622	      0.00000060	     15.94663063	     -0.66222499	     -3.45212753	    -20.10817329	     -1.28488494	     -0.00016146	      0.00000136	    -15.17757953	     -2.96141497	      1.12088107	      0.61263763	      1.05668579	      0.15394180	      0.63522931	      1.05366516	     -0.10565951	      0.42441080	      1.05140710	      0.01438410	      0.54381073	      0.73500836	      0.21042032	      0.61617749	      0.66210736	      0.13621213	      0.52699847	      0.61381409	      0.20986615	      0.64811444	      0.75087927	     -0.15519168	      0.74701636	      0.74197211	     -0.09046912	      0.68120850	      0.64881421	     -0.13825250	      0.40820770	      0.48584006	      0.19791237	      0.44232031	      0.40325574	      0.15342116	      0.35565369	      0.41589862	      0.20098366	      0.71350800	      0.44071017	     -0.13009402	      0.76202478	      0.39545679	     -0.07191023	      0.69678607	      0.39627808	     -0.13804089	      0.09868818	      0.25933514	      0.09713364	      0.19605853	      0.14973439	      0.07755762	      0.15874014	      0.14250027	      0.17864804	      0.24652106	      0.03352863	      0.12292198	      0.64672729	      0.07425810	     -0.04192367	      0.81347998	      0.07735084	     -0.01042067	      0.80054816	      0.07035513	     -0.10832283	      0.92723767	      0.05792173	     -0.03753672	      0.64330048	      1.36188782	     -0.00741927	      0.54094611	      1.45952148	      0.19686891	      0.57522827	      1.46221777	     -0.22149257	      0.55640399	      1.26111035	      0.25288159	      0.58325378	      1.22253027	     -0.24367279	      0.51964850	      1.15843530	      0.29001019	      0.52791785	      1.12860388	     -0.27653137	      0.68354950	      0.94280939	      0.28860321	      0.64736212	      0.92722955	      0.34061865	      0.62383606	      0.89594299	     -0.23015021	      0.57703705	      0.88732782	     -0.28805640	      0.18407036	      0.05615947	      0.19760373	      0.21813620	      0.05784079	      0.08980396	      0.86329706	      0.04571368	     -0.11505914	      0.87676678	      0.05534435	     -0.01285298	      0.70520441	      1.58681665	      0.07387362	      0.72031012	      1.58899207	     -0.06416257	      0.71253552	      1.76424011	      0.01055359	     13.75860551	     38.88129249	     -1.99759284	      0.26339083	     -0.00750000	      0.12807223	   -102.91539598	    742.62145846	     45.11746726	      0.71899474	     -0.00750000	     -0.05373884	      0.60151664	      0.23201248	      0.20420101	      0.00000000	      8.75411385	      0.00000000
      1.41700000	      0.60278672	      1.02307422	      0.01940024	      5.92787702	     -0.78171875	     -4.24265572	     -7.96211394	     -3.80281546	     -4.17700661	    -51.70046708	     -6.70389317	      0.00015820	     -0.00000233	     14.40861462	      0.17920650	     -3.84170541	    -20.04215501	     -0.36590628	     -0.00016753	     -0.00000185	    -15.31202458	     -3.56882763	      0.63344132	      0.61449139	      1.05982751	      0.15099080	      0.63656140	      1.05657080	     -0.10872913	      0.42529272	      1.05308813	      0.01168613	      0.55532526	      0.73509595	      0.20941177	      0.63274030	      0.66560876	      0.13625021	      0.54567108	      0.61354547	      0.20989946	      0.64491791	      0.75262006	     -0.15815831	      0.74245569	      0.74118719	     -0.09365119	      0.67331079	      0.64877167	     -0.14005576	      0.43158295	      0.48804810	      0.19989702	      0.46407321	      0.40383582	      0.15388808	      0.37726846	      0.41967297	      0.20237817	      0.70154871	      0.44005310	     -0.13262079	      0.75012354	      0.39418402	     -0.07398456	      0.68476068	      0.39610135	     -0.14027852	      0.11771391	      0.28010254	      0.09536913	      0.20495619	      0.16100352	      0.07900038	      0.16515106	      0.15808543	      0.17854596	      0.24290858	      0.03359631	      0.12600030	      0.62836310	      0.07426780	     -0.04267616	      0.79478113	      0.07626311	     -0.01109477	      0.78195825	      0.06968309	     -0.10904517	      0.90880029	      0.05566819	     -0.03856222	      0.64537250	      1.36579126	     -0.01045914	      0.54053046	      1.46281311	      0.19377637	      0.57703461	      1.46456970	     -0.22442506	      0.55365643	      1.26454663	      0.25051747	      0.58922754	      1.22434985	     -0.24526286	      0.51514709	      1.16204663	      0.28651251	      0.53661078	      1.12952588	     -0.27877664	      0.67245715	      0.94171515	      0.28926974	      0.63445599	      0.92693182	      0.34116785	      0.63272235	      0.89742316	     -0.23132039	      0.58613232	      0.88828931	     -0.29013074	      0.17977080	      0.06863459	      0.19637178	      0.21804131	      0.06711287	      0.09199091	      0.84506512	      0.04470569	     -0.11579517	      0.85842682	      0.05415846	     -0.01354007	      0.70399597	      1.59029333	      0.07070071	      0.71956409	      1.59237561	     -0.06798243	      0.71105194	      1.76733130	      0.00676193	      0.75040004	      9.01964498	     -3.35348141	      0.27151187	     -0.00750000	      0.12624560	    -97.92593254	    766.89925589	     43.59135215	      0.70502739	     -0.00750000	     -0.05462539	      0.92495032	      1.03996740	     -0.14967770	      0.00000000	      9.24338805	      0.00000000
